<?xml version="1.0" standalone="no"?>
<!DOCTYPE svg PUBLIC "-//W3C//DTD SVG 20010904//EN"
 "http://www.w3.org/TR/2001/REC-SVG-20010904/DTD/svg10.dtd">
<svg version="1.0" xmlns="http://www.w3.org/2000/svg"
 width="400.000000pt" height="1400.000000pt" viewBox="0 0 400.000000 1400.000000"
 preserveAspectRatio="xMidYMid meet">
<metadata>
Created by potrace 1.15, written by Peter Selinger 2001-2017
</metadata>
<g transform="translate(0.000000,1400.000000) scale(0.100000,-0.100000)"
fill="#000000" stroke="none">
<path d="M1222 11471 c-11 -7 -11 -9 2 -14 14 -5 16 -28 16 -146 0 -123 -2
-141 -17 -150 -14 -8 -5 -10 37 -10 30 0 48 3 40 6 -25 10 -30 25 -30 95 0 58
3 69 22 82 56 39 88 4 88 -97 0 -61 -2 -69 -22 -77 -18 -7 -11 -9 32 -9 42 0
51 2 38 10 -15 8 -18 24 -18 89 0 67 -3 83 -20 100 -24 24 -59 26 -86 5 -10
-8 -22 -15 -26 -15 -5 0 -8 32 -8 70 0 60 -2 70 -17 70 -10 0 -24 -4 -31 -9z"/>
<path d="M1030 11453 c-53 -27 -80 -75 -80 -140 0 -103 46 -156 135 -157 37
-1 59 5 83 22 17 13 32 28 32 34 0 6 -8 4 -19 -6 -50 -46 -138 -37 -172 17
-30 48 -24 165 11 202 22 24 31 26 74 22 29 -2 54 -11 60 -20 6 -8 16 -24 23
-34 10 -16 12 -13 12 18 1 41 -5 45 -76 54 -36 4 -57 1 -83 -12z"/>
<path d="M1510 11358 c-61 -32 -74 -128 -24 -178 36 -37 107 -36 140 3 13 15
24 37 24 48 0 11 5 17 10 14 6 -3 10 -14 10 -24 0 -33 48 -66 95 -66 51 0 81
23 94 71 21 75 -22 139 -94 139 -49 0 -72 -16 -93 -65 l-15 -35 -8 31 c-5 17
-17 38 -28 48 -25 23 -80 30 -111 14z m70 -8 c26 -14 43 -73 35 -121 -14 -82
-92 -90 -116 -10 -15 50 -4 106 24 126 25 18 32 18 57 5z m210 0 c26 -14 43
-73 35 -121 -14 -82 -92 -90 -116 -10 -15 50 -4 106 24 126 25 18 32 18 57 5z"/>
<path d="M2113 11360 c-71 -29 -80 -160 -13 -195 36 -19 52 -19 97 0 41 17 40
31 -1 15 -15 -5 -38 -7 -52 -4 -26 7 -54 50 -54 84 0 18 6 20 70 20 64 0 70 2
70 20 0 12 -11 32 -25 45 -25 26 -54 30 -92 15z"/>
<path d="M2351 11357 c8 -7 33 -58 56 -114 40 -100 41 -102 24 -135 -14 -28
-21 -33 -49 -31 -26 1 -32 -3 -30 -15 4 -24 41 -26 66 -5 13 11 39 69 67 152
25 74 53 140 63 147 15 12 12 13 -23 13 -31 0 -36 -2 -23 -10 16 -9 15 -15 -9
-84 -15 -42 -30 -72 -33 -68 -7 8 -60 139 -60 147 0 3 8 7 18 9 9 3 -5 5 -33
6 -41 0 -47 -2 -34 -12z"/>
<path d="M2600 11358 c-61 -32 -74 -128 -24 -178 31 -32 101 -35 133 -6 44 40
45 131 2 170 -25 23 -80 30 -111 14z m70 -8 c26 -14 43 -73 35 -121 -14 -82
-92 -90 -116 -10 -15 50 -4 106 24 126 25 18 32 18 57 5z"/>
<path d="M2786 11360 c-26 -4 -27 -6 -13 -19 13 -10 17 -30 17 -82 0 -56 4
-73 20 -89 24 -24 59 -26 86 -5 25 19 34 19 34 -1 0 -11 5 -14 16 -10 9 3 23
6 32 6 15 1 15 2 0 11 -15 8 -18 25 -18 104 0 79 -2 94 -15 90 -54 -17 -52
-15 -32 -26 13 -8 17 -23 17 -74 0 -55 -3 -66 -22 -79 -56 -39 -81 -10 -88 98
l-5 81 -29 -5z"/>
<path d="M1590 10953 c-53 -27 -80 -75 -80 -140 0 -103 46 -156 135 -157 37
-1 59 5 83 22 17 13 32 28 32 34 0 6 -8 4 -19 -6 -50 -46 -138 -37 -172 17
-30 48 -24 165 11 202 22 24 31 26 74 22 29 -2 54 -11 60 -20 6 -8 16 -24 23
-34 10 -16 12 -13 12 18 1 41 -5 45 -76 54 -36 4 -57 1 -83 -12z"/>
<path d="M1820 10858 c-61 -32 -74 -128 -24 -178 31 -32 101 -35 133 -6 44 40
45 131 2 170 -25 23 -80 30 -111 14z m70 -8 c26 -14 43 -73 35 -121 -14 -82
-92 -90 -116 -10 -15 50 -4 106 24 126 25 18 32 18 57 5z"/>
<path d="M2140 10858 c-61 -32 -74 -128 -24 -178 31 -32 101 -35 133 -6 44 40
45 131 2 170 -25 23 -80 30 -111 14z m70 -8 c26 -14 43 -73 35 -121 -14 -82
-92 -90 -116 -10 -15 50 -4 106 24 126 25 18 32 18 57 5z"/>
<path d="M1560 10453 c-53 -27 -80 -75 -80 -140 0 -103 46 -156 135 -157 37
-1 59 5 83 22 17 13 32 28 32 34 0 6 -8 4 -19 -6 -50 -46 -138 -37 -172 17
-30 48 -24 165 11 202 22 24 31 26 74 22 29 -2 54 -11 60 -20 6 -8 16 -24 23
-34 10 -16 12 -13 12 18 1 41 -5 45 -76 54 -36 4 -57 1 -83 -12z"/>
<path d="M2588 10369 c-18 -7 -28 -18 -28 -31 0 -19 1 -19 35 2 39 24 73 23
89 -2 17 -28 -5 -68 -64 -116 -82 -67 -79 -72 34 -72 l96 0 0 38 0 37 -18 -23
c-16 -20 -25 -23 -77 -20 l-60 3 57 37 c58 38 78 62 78 96 0 45 -82 74 -142
51z"/>
<path d="M1790 10358 c-61 -32 -74 -128 -24 -178 31 -32 101 -35 133 -6 44 40
45 131 2 170 -25 23 -80 30 -111 14z m70 -8 c26 -14 43 -73 35 -121 -14 -82
-92 -90 -116 -10 -15 50 -4 106 24 126 25 18 32 18 57 5z"/>
<path d="M2110 10358 c-61 -32 -74 -128 -24 -178 31 -32 101 -35 133 -6 44 40
45 131 2 170 -25 23 -80 30 -111 14z m70 -8 c26 -14 43 -73 35 -121 -14 -82
-92 -90 -116 -10 -15 50 -4 106 24 126 25 18 32 18 57 5z"/>
<path d="M2380 9977 c-33 -9 -34 -10 -12 -18 19 -7 22 -16 22 -59 0 -48 -1
-50 -21 -39 -31 16 -85 2 -108 -27 -31 -40 -36 -87 -15 -131 25 -50 61 -63
109 -40 32 15 35 15 35 1 0 -11 5 -14 16 -10 9 3 23 6 32 6 14 0 14 1 -1 13
-14 10 -17 35 -19 163 l-3 150 -35 -9z m8 -208 c3 -76 3 -76 -27 -88 -66 -28
-118 58 -80 132 17 31 29 38 69 35 l35 -3 3 -76z"/>
<path d="M1823 9860 c-13 -5 -23 -16 -23 -25 0 -14 3 -14 31 0 46 24 73 16 77
-21 3 -29 1 -31 -44 -40 -60 -12 -90 -47 -75 -87 13 -34 51 -44 90 -24 24 12
32 12 40 3 7 -8 41 -13 88 -14 58 -1 73 1 61 9 -15 8 -18 24 -18 90 0 77 1 80
27 90 19 7 35 7 50 0 21 -10 23 -17 23 -90 0 -66 -3 -82 -17 -90 -14 -8 -5
-10 37 -10 42 0 51 2 38 10 -15 8 -18 24 -18 85 0 66 -3 78 -25 99 -28 29 -61
32 -93 9 -18 -12 -22 -13 -22 -1 0 9 -9 12 -30 9 -32 -5 -39 -16 -15 -26 11
-4 15 -22 15 -75 0 -79 -6 -101 -27 -101 -8 0 -12 4 -9 9 3 5 -2 8 -12 7 -14
-1 -18 11 -22 76 -3 52 -10 83 -21 93 -19 20 -77 28 -106 15z"/>
<path d="M1680 9477 c-33 -9 -34 -10 -12 -18 19 -7 22 -16 22 -59 0 -48 -1
-50 -21 -39 -31 16 -85 2 -108 -27 -31 -40 -36 -87 -15 -131 25 -50 61 -63
109 -40 32 15 35 15 35 1 0 -11 5 -14 16 -10 9 3 23 6 32 6 14 0 14 1 -1 13
-14 10 -17 35 -19 163 l-3 150 -35 -9z m8 -208 c3 -76 3 -76 -27 -88 -66 -28
-118 58 -80 132 17 31 29 38 69 35 l35 -3 3 -76z"/>
<path d="M788 9450 c21 -9 22 -14 22 -145 0 -131 -1 -136 -22 -145 -17 -6 -7
-9 42 -9 49 0 59 3 43 9 -21 8 -23 16 -23 80 l0 70 75 0 75 0 0 -70 c0 -64 -2
-72 -22 -80 -18 -7 -9 -9 37 -9 45 0 56 2 43 10 -16 9 -18 27 -18 144 0 117 2
135 18 144 13 8 2 10 -43 10 -46 0 -55 -2 -37 -9 19 -8 22 -16 22 -70 l0 -60
-75 0 -75 0 0 60 c0 54 3 62 23 70 16 6 6 9 -43 9 -49 0 -59 -3 -42 -9z"/>
<path d="M2178 9450 c21 -9 22 -14 22 -145 0 -131 -1 -136 -22 -145 -17 -6 -7
-9 42 -9 49 0 59 3 43 9 -20 8 -23 16 -23 71 0 60 0 61 25 55 31 -8 90 16 104
42 26 49 8 104 -40 121 -40 14 -186 14 -151 1z"/>
<path d="M2617 9423 c-4 -3 -7 -14 -7 -24 0 -10 -10 -25 -22 -33 l-22 -16 22
0 c21 0 22 -4 22 -90 0 -80 2 -90 21 -100 22 -12 79 -4 79 10 0 5 -6 7 -14 4
-8 -3 -24 -1 -35 6 -19 9 -21 20 -21 90 l0 80 55 0 55 0 0 -90 c0 -80 2 -90
21 -100 22 -12 79 -4 79 10 0 5 -6 7 -14 4 -8 -3 -24 -1 -35 6 -19 9 -21 20
-21 90 l0 80 34 0 c19 0 38 5 41 10 4 6 -10 10 -34 10 -39 0 -41 1 -41 31 0
34 -22 36 -29 3 -6 -33 -18 -39 -65 -36 -43 4 -46 6 -46 33 0 28 -9 37 -23 22z"/>
<path d="M1133 9360 c-13 -5 -23 -16 -23 -25 0 -14 3 -14 31 0 46 24 73 16 77
-21 3 -29 1 -31 -44 -40 -60 -12 -90 -47 -75 -87 13 -34 51 -44 90 -24 24 12
32 12 40 3 7 -8 41 -13 88 -14 58 -1 73 1 61 9 -15 8 -18 24 -18 90 0 77 1 80
27 90 19 7 35 7 50 0 21 -10 23 -17 23 -90 0 -66 -3 -82 -17 -90 -14 -8 -5
-10 37 -10 42 0 51 2 38 10 -15 8 -18 24 -18 85 0 66 -3 78 -25 99 -28 29 -61
32 -93 9 -18 -12 -22 -13 -22 -1 0 9 -9 12 -30 9 -32 -5 -39 -16 -15 -26 11
-4 15 -22 15 -75 0 -79 -6 -101 -27 -101 -8 0 -12 4 -9 9 3 5 -2 8 -12 7 -14
-1 -18 11 -22 76 -3 52 -10 83 -21 93 -19 20 -77 28 -106 15z"/>
<path d="M1933 9360 c-71 -29 -80 -160 -13 -195 36 -19 52 -19 97 0 41 17 40
31 -1 15 -15 -5 -38 -7 -52 -4 -26 7 -54 50 -54 84 0 18 6 20 70 20 64 0 70 2
70 20 0 12 -11 32 -25 45 -25 26 -54 30 -92 15z"/>
<path d="M2423 9360 c-13 -5 -23 -16 -23 -25 0 -14 3 -14 31 0 46 24 73 16 77
-21 3 -29 1 -31 -44 -40 -60 -12 -90 -47 -75 -87 13 -34 51 -44 90 -24 26 13
32 13 42 1 15 -18 30 -18 55 0 19 14 19 14 -1 13 -18 -2 -20 6 -25 75 -3 52
-10 83 -21 93 -19 20 -77 28 -106 15z"/>
<path d="M2913 9360 c-71 -29 -80 -160 -13 -195 36 -19 52 -19 97 0 41 17 40
31 -1 15 -15 -5 -38 -7 -52 -4 -26 7 -54 50 -54 84 0 18 6 20 70 20 64 0 70 2
70 20 0 12 -11 32 -25 45 -25 26 -54 30 -92 15z"/>
<path d="M3258 9362 c-30 -4 -37 -16 -13 -26 11 -4 15 -23 15 -78 0 -76 -5
-91 -30 -101 -8 -3 10 -6 40 -6 42 0 51 2 38 10 -15 8 -18 24 -18 90 0 77 1
80 27 90 19 7 35 7 50 0 21 -10 23 -17 23 -90 0 -66 -3 -82 -17 -90 -14 -8 -5
-10 37 -10 42 0 51 2 38 10 -15 8 -18 24 -18 85 0 66 -3 78 -25 99 -28 28 -61
32 -92 10 -16 -12 -22 -12 -25 -3 -2 8 -15 12 -30 10z"/>
<path d="M3180 8477 c-33 -9 -34 -10 -12 -18 19 -7 22 -16 22 -59 0 -48 -1
-50 -21 -39 -31 16 -85 2 -108 -27 -31 -40 -36 -87 -15 -131 25 -50 61 -63
109 -40 32 15 35 15 35 1 0 -11 5 -14 16 -10 9 3 23 6 32 6 14 0 14 1 -1 13
-14 10 -17 35 -19 163 l-3 150 -35 -9z m8 -208 c3 -76 3 -76 -27 -88 -66 -28
-118 58 -80 132 17 31 29 38 69 35 l35 -3 3 -76z"/>
<path d="M782 8471 c-11 -7 -11 -9 2 -14 14 -5 16 -28 16 -146 0 -123 -2 -141
-17 -150 -14 -8 -5 -10 37 -10 30 0 48 3 40 6 -25 10 -30 25 -30 95 0 58 3 69
22 82 56 39 88 4 88 -97 0 -61 -2 -69 -22 -77 -18 -7 -11 -9 32 -9 42 0 51 2
38 10 -15 8 -18 24 -18 89 0 67 -3 83 -20 100 -24 24 -59 26 -86 5 -10 -8 -22
-15 -26 -15 -5 0 -8 32 -8 70 0 60 -2 70 -17 70 -10 0 -24 -4 -31 -9z"/>
<path d="M2122 8471 c-11 -7 -11 -9 2 -14 14 -5 16 -28 16 -146 0 -123 -2
-141 -17 -150 -14 -8 -5 -10 37 -10 30 0 48 3 40 6 -22 9 -30 24 -30 59 0 50
25 50 60 2 33 -46 36 -54 18 -61 -7 -3 12 -5 42 -6 43 0 51 2 35 10 -11 6 -39
36 -62 67 l-42 57 22 24 c12 13 36 32 52 42 l30 19 -45 0 c-32 0 -41 -3 -30
-10 12 -8 8 -16 -25 -50 -21 -22 -43 -40 -47 -40 -4 0 -8 47 -8 105 0 93 -2
105 -17 105 -10 0 -24 -4 -31 -9z"/>
<path d="M511 8423 l1 -38 14 33 c13 30 18 33 52 30 l37 -3 0 -140 0 -139 -25
-7 c-16 -5 0 -7 45 -8 63 -1 67 1 45 12 -25 12 -25 14 -25 147 l0 135 38 3
c34 3 39 0 52 -30 l14 -33 1 38 0 37 -125 0 -125 0 1 -37z"/>
<path d="M1063 8360 c-71 -29 -80 -160 -13 -195 36 -19 52 -19 97 0 41 17 40
31 -1 15 -15 -5 -38 -7 -52 -4 -26 7 -54 50 -54 84 0 18 6 20 70 20 64 0 70 2
70 20 0 12 -11 32 -25 45 -25 26 -54 30 -92 15z"/>
<path d="M1238 8362 c-30 -4 -37 -16 -13 -26 11 -4 15 -23 15 -78 0 -76 -5
-91 -30 -101 -8 -3 10 -6 40 -6 42 0 51 2 38 10 -15 8 -18 24 -18 90 0 77 1
80 27 90 19 7 35 7 50 0 21 -10 23 -17 23 -90 0 -66 -3 -82 -17 -90 -14 -8 -5
-10 37 -10 42 0 51 2 38 10 -15 8 -18 24 -18 85 0 66 -3 78 -25 99 -28 28 -61
32 -92 10 -16 -12 -22 -12 -25 -3 -2 8 -15 12 -30 10z"/>
<path d="M2663 8360 c-71 -29 -80 -160 -13 -195 36 -19 52 -19 97 0 41 17 40
31 -1 15 -15 -5 -38 -7 -52 -4 -26 7 -54 50 -54 84 0 18 6 20 70 20 64 0 70 2
70 20 0 12 -11 32 -25 45 -25 26 -54 30 -92 15z"/>
<path d="M2828 8362 c-30 -4 -37 -16 -13 -26 11 -4 15 -23 15 -78 0 -76 -5
-91 -30 -101 -8 -3 10 -6 40 -6 42 0 51 2 38 10 -15 8 -18 24 -18 90 0 77 1
80 27 90 19 7 35 7 50 0 21 -10 23 -17 23 -90 0 -66 -3 -82 -17 -90 -14 -8 -5
-10 37 -10 42 0 51 2 38 10 -15 8 -18 24 -18 85 0 66 -3 78 -25 99 -28 28 -61
32 -92 10 -16 -12 -22 -12 -25 -3 -2 8 -15 12 -30 10z"/>
<path d="M3323 8360 c-71 -29 -80 -160 -13 -195 36 -19 52 -19 97 0 41 17 40
31 -1 15 -15 -5 -38 -7 -52 -4 -26 7 -54 50 -54 84 0 18 6 20 70 20 64 0 70 2
70 20 0 12 -11 32 -25 45 -25 26 -54 30 -92 15z"/>
<path d="M1210 7977 c-22 -6 -29 -12 -20 -15 27 -9 30 -25 30 -160 l0 -132 26
-10 c57 -22 121 -2 142 45 17 36 15 106 -3 132 -21 29 -68 38 -105 20 l-29
-15 -3 72 -3 72 -35 -9z m120 -137 c29 -16 45 -75 31 -120 -13 -45 -56 -69
-90 -50 -18 9 -21 20 -21 85 0 60 3 76 18 84 22 13 39 13 62 1z"/>
<path d="M1033 7860 c-13 -5 -23 -16 -23 -25 0 -14 3 -14 31 0 46 24 73 16 77
-21 3 -29 1 -31 -44 -40 -60 -12 -90 -47 -75 -87 13 -34 51 -44 90 -24 26 13
32 13 42 1 15 -18 30 -18 55 0 19 14 19 14 -1 13 -18 -2 -20 6 -25 75 -3 52
-10 83 -21 93 -19 20 -77 28 -106 15z"/>
<path d="M1480 7858 c-61 -32 -74 -128 -24 -178 31 -32 101 -35 133 -6 44 40
45 131 2 170 -25 23 -80 30 -111 14z m70 -8 c26 -14 43 -73 35 -121 -14 -82
-92 -90 -116 -10 -15 50 -4 106 24 126 25 18 32 18 57 5z"/>
<path d="M1903 7860 c-71 -29 -80 -160 -13 -195 36 -19 52 -19 97 0 41 17 40
31 -1 15 -15 -5 -38 -7 -52 -4 -26 7 -54 50 -54 84 0 18 6 20 70 20 64 0 70 2
70 20 0 12 -11 32 -25 45 -25 26 -54 30 -92 15z"/>
<path d="M2320 7858 c-61 -32 -74 -128 -24 -178 31 -32 101 -35 133 -6 44 40
45 131 2 170 -25 23 -80 30 -111 14z m70 -8 c26 -14 43 -73 35 -121 -14 -82
-92 -90 -116 -10 -15 50 -4 106 24 126 25 18 32 18 57 5z"/>
<path d="M2813 7860 c-71 -29 -80 -160 -13 -195 36 -19 52 -19 97 0 41 17 40
31 -1 15 -15 -5 -38 -7 -52 -4 -26 7 -54 50 -54 84 0 18 6 20 70 20 64 0 70 2
70 20 0 12 -11 32 -25 45 -25 26 -54 30 -92 15z"/>
<path d="M3013 7860 c-71 -29 -80 -160 -13 -195 36 -19 52 -19 97 0 41 17 40
31 -1 15 -15 -5 -38 -7 -52 -4 -26 7 -54 50 -54 84 0 18 6 20 70 20 64 0 70 2
70 20 0 12 -11 32 -25 45 -25 26 -54 30 -92 15z"/>
<path d="M2300 7477 c-29 -7 -32 -10 -17 -18 15 -9 17 -28 17 -149 0 -80 -4
-141 -10 -145 -5 -3 -19 -1 -30 5 -18 10 -20 21 -20 105 0 85 -2 94 -17 89
-10 -3 -25 -8 -33 -11 -13 -4 -12 -6 3 -14 13 -8 17 -23 17 -74 0 -55 -3 -66
-22 -79 -57 -41 -88 -4 -88 104 l0 77 -30 -5 c-28 -4 -30 -6 -15 -21 10 -12
15 -38 15 -84 0 -54 4 -71 20 -87 24 -24 59 -26 86 -5 24 18 34 19 34 3 0 -9
24 -13 83 -15 45 0 74 1 65 4 -16 4 -18 23 -20 167 l-3 162 -35 -9z"/>
<path d="M2812 7471 c-11 -7 -11 -9 2 -14 14 -5 16 -28 16 -146 0 -123 -2
-141 -17 -150 -14 -8 -5 -10 37 -10 30 0 48 3 40 6 -25 10 -30 25 -30 95 0 58
3 69 22 82 56 39 88 4 88 -97 0 -61 -2 -69 -22 -77 -16 -6 11 -9 87 -9 79 0
105 2 93 10 -15 8 -18 25 -18 108 l0 98 -30 -5 c-32 -5 -39 -16 -15 -26 11 -4
15 -23 15 -78 0 -86 -7 -101 -46 -96 l-29 3 -5 88 c-4 73 -9 91 -24 103 -25
18 -57 18 -82 -1 -10 -8 -22 -15 -26 -15 -5 0 -8 32 -8 70 0 60 -2 70 -17 70
-10 0 -24 -4 -31 -9z"/>
<path d="M1798 7450 c21 -9 22 -14 22 -145 0 -131 -1 -136 -22 -145 -17 -6 -2
-9 55 -9 116 -1 167 27 167 92 0 27 -38 67 -64 67 -14 0 -12 6 13 29 36 34 40
70 11 96 -17 15 -40 20 -113 22 -66 2 -86 0 -69 -7z m164 -170 c24 -29 23 -73
-1 -94 -11 -10 -38 -20 -60 -23 l-41 -6 0 78 0 78 42 -6 c27 -4 49 -14 60 -27z"/>
<path d="M851 7357 c8 -7 33 -58 56 -114 40 -100 41 -102 24 -135 -14 -28 -21
-33 -49 -31 -26 1 -32 -3 -30 -15 4 -24 41 -26 66 -5 13 11 39 69 67 152 25
74 53 140 63 147 15 12 12 13 -23 13 -31 0 -36 -2 -23 -10 16 -9 15 -15 -9
-84 -15 -42 -30 -72 -33 -68 -7 8 -60 139 -60 147 0 3 8 7 18 9 9 3 -5 5 -33
6 -41 0 -47 -2 -34 -12z"/>
<path d="M1110 7358 c-61 -32 -74 -128 -24 -178 31 -32 101 -35 133 -6 44 40
45 131 2 170 -25 23 -80 30 -111 14z m70 -8 c26 -14 43 -73 35 -121 -14 -82
-92 -90 -116 -10 -15 50 -4 106 24 126 25 18 32 18 57 5z"/>
<path d="M1296 7360 c-26 -4 -27 -6 -13 -19 13 -10 17 -30 17 -82 0 -56 4 -73
20 -89 24 -24 59 -26 86 -5 25 19 34 19 34 -1 0 -11 5 -14 16 -10 9 3 23 6 32
6 15 1 15 2 0 11 -15 8 -18 25 -18 104 0 79 -2 94 -15 90 -54 -17 -52 -15 -32
-26 13 -8 17 -23 17 -74 0 -55 -3 -66 -22 -79 -56 -39 -81 -10 -88 98 l-5 81
-29 -5z"/>
<path d="M2481 7360 c9 -5 31 -54 50 -110 19 -55 37 -100 41 -100 3 0 14 21
24 48 9 26 24 63 32 82 l14 35 14 -40 c34 -98 46 -125 54 -120 4 3 22 44 40
93 17 48 39 95 47 105 15 16 14 17 -23 16 -21 -1 -31 -3 -21 -6 9 -2 17 -8 17
-13 0 -13 -41 -123 -49 -132 -4 -4 -19 28 -35 72 -15 44 -32 78 -36 75 -4 -2
-20 -39 -35 -80 -15 -42 -31 -73 -35 -68 -4 4 -16 33 -25 63 -10 30 -20 60
-22 67 -3 6 4 13 14 16 10 3 -4 5 -32 6 -35 0 -45 -2 -34 -9z"/>
<path d="M3183 7363 c-23 -4 -33 -23 -13 -23 6 0 10 -53 10 -140 0 -122 -2
-140 -17 -149 -14 -8 -3 -10 42 -10 46 0 55 2 38 9 -20 8 -23 17 -23 65 0 52
1 55 19 45 32 -17 59 -12 92 18 26 23 33 38 37 80 4 47 2 54 -26 82 -34 33
-66 38 -100 14 -20 -14 -22 -14 -22 0 0 9 -3 15 -7 15 -5 -1 -18 -4 -30 -6z
m121 -34 c21 -17 26 -29 26 -68 0 -65 -21 -93 -68 -89 l-37 3 -3 75 c-2 62 0
77 14 87 24 18 37 16 68 -8z"/>
<path d="M2330 6656 c-199 -46 -375 -141 -551 -297 -89 -80 -171 -179 -323
-392 -70 -98 -155 -212 -188 -254 -53 -67 -62 -74 -69 -58 -5 11 -24 99 -44
195 -65 322 -83 372 -163 461 -82 91 -199 118 -305 71 -101 -45 -209 -193
-242 -333 -32 -137 -8 -352 54 -482 39 -83 105 -151 179 -185 50 -24 69 -27
157 -27 89 0 107 3 160 28 33 15 83 46 113 68 29 23 55 39 56 37 2 -1 8 -28
14 -58 6 -30 50 -237 97 -460 47 -223 104 -490 126 -595 22 -104 42 -198 45
-207 5 -16 -2 -18 -50 -18 l-56 0 0 -35 0 -36 148 3 147 3 0 30 c0 28 -3 30
-42 33 -24 2 -43 7 -43 11 0 5 42 107 93 227 52 121 141 330 198 467 57 136
106 247 109 247 5 0 392 -909 398 -937 3 -9 -9 -13 -42 -13 -46 0 -46 0 -46
-35 l0 -36 148 3 147 3 0 30 c0 29 -1 30 -53 33 -44 3 -52 6 -48 20 3 9 66
305 141 657 74 352 142 670 150 706 8 36 28 133 45 215 17 82 33 157 36 167 4
14 17 17 65 17 l59 0 0 35 0 36 -147 -3 -148 -3 0 -30 c0 -29 2 -30 53 -33 28
-2 52 -7 52 -11 0 -13 -358 -1693 -362 -1696 -2 -2 -59 130 -128 293 -68 164
-156 372 -196 465 l-71 167 48 0 49 0 0 35 0 35 -151 0 -150 0 3 -32 c3 -32 5
-33 46 -33 23 0 42 -4 42 -9 0 -23 -384 -915 -391 -910 -5 3 -9 12 -9 20 0 8
-61 303 -136 655 l-136 640 44 47 c50 54 153 190 283 372 174 245 294 367 476
482 179 113 329 154 539 145 291 -11 552 -126 745 -328 87 -92 141 -171 215
-318 281 -562 228 -1239 -139 -1756 -78 -111 -248 -284 -362 -370 -305 -230
-648 -344 -1032 -345 l-139 0 -29 31 c-34 36 -49 84 -49 157 0 46 -2 52 -21
52 -20 0 -21 -4 -17 -77 3 -43 8 -86 13 -96 5 -12 -24 2 -79 38 -48 31 -95 55
-104 53 -37 -7 -15 -39 58 -88 83 -55 79 -60 -29 -30 -68 19 -76 20 -90 5 -23
-23 -4 -47 50 -63 160 -47 488 -65 686 -37 365 52 706 216 970 468 210 202
348 405 449 668 151 390 150 868 0 1259 -173 447 -448 711 -853 817 -81 21
-126 26 -258 29 -107 2 -178 -1 -215 -10z m-1443 -348 c17 -10 45 -35 62 -54
60 -68 80 -126 140 -406 l58 -269 -50 -44 c-74 -67 -166 -109 -249 -113 -152
-9 -257 76 -315 253 -34 106 -39 307 -9 395 72 211 232 317 363 238z"/>
<path d="M419 5422 c-8 -9 -50 -26 -92 -36 -43 -10 -77 -23 -77 -30 0 -6 23
-20 51 -31 28 -11 53 -23 55 -27 3 -4 -23 -14 -56 -24 -33 -9 -59 -21 -57 -27
1 -5 39 -24 82 -42 44 -18 79 -37 78 -44 -2 -6 2 -11 7 -11 6 0 10 6 10 13 0
6 3 22 6 35 4 12 2 22 -4 22 -6 0 -12 -6 -14 -14 -2 -11 -16 -9 -66 11 -35 14
-61 27 -59 30 3 2 32 13 66 23 50 15 61 16 61 4 0 -8 5 -14 10 -14 6 0 10 17
10 37 0 32 -2 35 -13 19 -12 -16 -15 -16 -52 0 -22 9 -51 21 -65 26 -24 10
-23 11 20 23 99 26 100 26 100 10 0 -8 5 -15 10 -15 6 0 10 18 10 40 0 22 -1
40 -3 40 -1 0 -9 -8 -18 -18z"/>
<path d="M470 4764 c0 -17 -13 -25 -71 -41 -58 -18 -71 -19 -76 -7 -11 29 -21
2 -11 -29 14 -42 31 -60 26 -28 -2 17 3 26 20 32 19 7 24 4 36 -26 20 -47 56
-64 91 -41 28 18 31 39 13 100 -13 48 -28 69 -28 40z"/>
<path d="M627 4394 c-3 -3 -4 -11 -1 -18 3 -7 -18 -43 -46 -81 -27 -38 -46
-73 -42 -77 4 -4 30 -1 57 7 27 9 53 14 57 13 5 -2 -8 -26 -27 -55 -19 -29
-31 -54 -27 -57 4 -2 41 7 82 20 41 13 85 22 98 19 27 -6 28 3 3 33 -22 25
-36 29 -28 8 4 -11 -11 -20 -55 -35 -34 -12 -63 -19 -65 -17 -3 2 12 27 32 55
30 41 41 50 58 45 19 -6 19 -5 -2 25 -25 35 -42 41 -34 12 4 -17 -4 -22 -53
-37 -33 -9 -63 -19 -68 -22 -11 -6 0 12 43 71 27 37 37 44 48 35 24 -19 24 -3
-1 30 -12 17 -26 29 -29 26z"/>
<path d="M775 4108 c-62 -34 -74 -106 -25 -153 42 -40 94 -39 132 4 71 80 -15
200 -107 149z m80 -14 c26 -10 46 -59 36 -87 -11 -29 -57 -67 -81 -67 -10 0
-29 9 -44 21 -70 55 4 165 89 133z"/>
<path d="M974 3984 c4 -14 -7 -38 -36 -77 -33 -45 -46 -56 -62 -51 -18 4 -16
1 7 -20 31 -28 58 -36 37 -11 -10 13 -10 19 5 35 14 15 21 17 36 7 15 -9 17
-19 12 -55 -4 -32 -2 -46 8 -53 21 -13 35 -11 21 3 -7 7 -12 27 -12 45 0 28 4
33 23 33 27 0 55 19 58 40 6 30 -12 57 -57 90 -38 27 -45 29 -40 14z"/>
</g>
</svg>
